<svg width="44" height="44" viewBox="0 0 44 44" fill="none" xmlns="http://www.w3.org/2000/svg">
<rect width="44" height="44" rx="22" fill="#F4F5F8"/>
<path d="M21.8333 15.3867V15.8198L22.262 15.8816C24.2782 16.1721 25.8333 17.9075 25.8333 20V21.8587C25.8333 23.3246 26.4757 24.7092 27.5953 25.6561C27.7505 25.7897 27.8333 25.9739 27.8333 26.1667C27.8333 26.5339 27.5339 26.8333 27.1667 26.8333H16.1667C15.7995 26.8333 15.5 26.5339 15.5 26.1667C15.5 25.972 15.5843 25.7884 15.7322 25.6613C16.8573 24.7094 17.5 23.3251 17.5 21.8587V20C17.5 17.9074 19.0545 16.1721 21.0713 15.8816L21.5 15.8198V15.3867V14.6667C21.5 14.5745 21.5745 14.5 21.6667 14.5C21.7589 14.5 21.8333 14.5745 21.8333 14.6667V15.3867Z" stroke="#5068A5"/>
<mask id="path-3-inside-1" fill="white">
<path d="M21.6681 30C22.8754 30 23.8854 29.1393 24.1174 28H19.2188C19.4508 29.1393 20.4608 30 21.6681 30Z"/>
</mask>
<path d="M21.6681 30C22.8754 30 23.8854 29.1393 24.1174 28H19.2188C19.4508 29.1393 20.4608 30 21.6681 30Z" fill="#5068A5"/>
<path d="M24.1174 28L45.0218 32.2567L50.2326 6.66667H24.1174V28ZM19.2188 28V6.66667H-6.89644L-1.68559 32.2567L19.2188 28ZM21.6681 51.3333C33.2361 51.3333 42.8104 43.1167 45.0218 32.2567L3.21307 23.7433C4.96048 15.1619 12.5147 8.66667 21.6681 8.66667V51.3333ZM24.1174 6.66667H19.2188V49.3333H24.1174V6.66667ZM-1.68559 32.2567C0.525812 43.1167 10.1001 51.3333 21.6681 51.3333V8.66667C30.8214 8.66667 38.3757 15.1619 40.1231 23.7433L-1.68559 32.2567Z" fill="#5068A5" mask="url(#path-3-inside-1)"/>
</svg>
