<svg width="16" height="16" viewBox="0 0 16 16" fill="none" xmlns="http://www.w3.org/2000/svg">
<path d="M13.6569 2.34313C12.1459 0.832125 10.1369 0 8 0C5.86312 0 3.85406 0.832125 2.34313 2.34313C0.832156 3.85413 0 5.86312 0 8C0 10.1369 0.832156 12.1459 2.34313 13.6569C3.85413 15.1679 5.86312 16 8 16C10.1369 16 12.1459 15.1679 13.6569 13.6569C15.1678 12.1459 16 10.1369 16 8C16 5.86312 15.1678 3.85406 13.6569 2.34313ZM8 15.0625C4.10563 15.0625 0.9375 11.8944 0.9375 8C0.9375 4.10563 4.10563 0.9375 8 0.9375C11.8944 0.9375 15.0625 4.10563 15.0625 8C15.0625 11.8944 11.8944 15.0625 8 15.0625Z" fill="#EA5DBB"/>
<path d="M8.50226 7.53129H7.49807C6.92598 7.53129 6.46057 7.06589 6.46057 6.49382C6.46057 5.92173 6.92601 5.45632 7.49807 5.45632H9.50641C9.76529 5.45632 9.97516 5.24645 9.97516 4.98757C9.97516 4.7287 9.76529 4.51882 9.50641 4.51882H8.46891V3.48132C8.46891 3.22245 8.25904 3.01257 8.00016 3.01257C7.74129 3.01257 7.53141 3.22245 7.53141 3.48132V4.51882H7.4981C6.40907 4.51882 5.5231 5.40482 5.5231 6.49382C5.5231 7.58282 6.4091 8.46879 7.4981 8.46879H8.50229C9.07435 8.46879 9.53976 8.93423 9.53976 9.50629C9.53976 10.0784 9.07435 10.5438 8.50229 10.5438H6.49395C6.23507 10.5438 6.0252 10.7537 6.0252 11.0125C6.0252 11.2714 6.23507 11.4813 6.49395 11.4813H7.53141V12.5188C7.53141 12.7777 7.74129 12.9876 8.00016 12.9876C8.25904 12.9876 8.46891 12.7777 8.46891 12.5188V11.4813H8.50226C9.59126 11.4813 10.4772 10.5953 10.4772 9.50629C10.4772 8.41729 9.59126 7.53129 8.50226 7.53129Z" fill="#EA5DBB"/>
</svg>
