<svg width="127" height="32" viewBox="0 0 127 32" fill="none" xmlns="http://www.w3.org/2000/svg">
<mask id="mask0" mask-type="alpha" maskUnits="userSpaceOnUse" x="0" y="0" width="32" height="32">
<circle cx="16" cy="16" r="16" fill="url(#paint0_linear)"/>
</mask>
<g mask="url(#mask0)">
<circle cx="16" cy="16" r="16" fill="url(#paint1_linear)"/>
<path d="M21.088 20.44V2.656C21.088 2.384 21.096 2.088 21.112 1.768C21.144 1.448 21.176 1.12 21.208 0.783998L6.52 20.44H21.088ZM34.6841 20.44V21.688C34.6841 21.864 34.6281 22.008 34.5161 22.12C34.4201 22.216 34.2601 22.264 34.0361 22.264H23.104V32.008H21.088V22.264H5.032C4.792 22.264 4.608 22.216 4.48 22.12C4.352 22.008 4.264 21.864 4.216 21.688L4 20.56L21.064 -2H23.104V20.44H34.6841Z" fill="white"/>
</g>
<path d="M45.984 15.892C45.9307 15.9773 45.8747 16.0387 45.816 16.076C45.7573 16.108 45.6827 16.124 45.592 16.124C45.496 16.124 45.392 16.0973 45.28 16.044C45.1733 15.9907 45.048 15.932 44.904 15.868C44.76 15.7987 44.5947 15.7373 44.408 15.684C44.2267 15.6307 44.0107 15.604 43.76 15.604C43.3707 15.604 43.064 15.6867 42.84 15.852C42.6213 16.0173 42.512 16.2333 42.512 16.5C42.512 16.676 42.568 16.8253 42.68 16.948C42.7973 17.0653 42.9493 17.1693 43.136 17.26C43.328 17.3507 43.544 17.4333 43.784 17.508C44.024 17.5773 44.2667 17.6547 44.512 17.74C44.7627 17.8253 45.008 17.924 45.248 18.036C45.488 18.1427 45.7013 18.2813 45.888 18.452C46.08 18.6173 46.232 18.8173 46.344 19.052C46.4613 19.2867 46.52 19.5693 46.52 19.9C46.52 20.2947 46.448 20.66 46.304 20.996C46.1653 21.3267 45.9573 21.6147 45.68 21.86C45.4027 22.1 45.0587 22.2893 44.648 22.428C44.2427 22.5613 43.7733 22.628 43.24 22.628C42.9573 22.628 42.68 22.6013 42.408 22.548C42.1413 22.5 41.8827 22.4307 41.632 22.34C41.3867 22.2493 41.1573 22.1427 40.944 22.02C40.736 21.8973 40.552 21.764 40.392 21.62L40.848 20.868C40.9067 20.7773 40.976 20.708 41.056 20.66C41.136 20.612 41.2373 20.588 41.36 20.588C41.4827 20.588 41.5973 20.6227 41.704 20.692C41.816 20.7613 41.944 20.836 42.088 20.916C42.232 20.996 42.4 21.0707 42.592 21.14C42.7893 21.2093 43.0373 21.244 43.336 21.244C43.5707 21.244 43.7707 21.2173 43.936 21.164C44.1067 21.1053 44.2453 21.0307 44.352 20.94C44.464 20.8493 44.544 20.7453 44.592 20.628C44.6453 20.5053 44.672 20.38 44.672 20.252C44.672 20.06 44.6133 19.9027 44.496 19.78C44.384 19.6573 44.232 19.5507 44.04 19.46C43.8533 19.3693 43.6373 19.2893 43.392 19.22C43.152 19.1453 42.904 19.0653 42.648 18.98C42.3973 18.8947 42.1493 18.796 41.904 18.684C41.664 18.5667 41.448 18.42 41.256 18.244C41.0693 18.068 40.9173 17.852 40.8 17.596C40.688 17.34 40.632 17.0307 40.632 16.668C40.632 16.332 40.6987 16.012 40.832 15.708C40.9653 15.404 41.16 15.14 41.416 14.916C41.6773 14.6867 42 14.5053 42.384 14.372C42.7733 14.2333 43.2213 14.164 43.728 14.164C44.2933 14.164 44.808 14.2573 45.272 14.444C45.736 14.6307 46.1227 14.876 46.432 15.18L45.984 15.892ZM50.7433 22.628C50.0286 22.628 49.4793 22.428 49.0953 22.028C48.7166 21.6227 48.5273 21.0653 48.5273 20.356V15.772H47.6873C47.5806 15.772 47.4899 15.7373 47.4153 15.668C47.3406 15.5987 47.3033 15.4947 47.3033 15.356V14.572L48.6233 14.356L49.0393 12.116C49.0659 12.0093 49.1166 11.9267 49.1913 11.868C49.2659 11.8093 49.3619 11.78 49.4793 11.78H50.5033V14.364H52.6953V15.772H50.5033V20.22C50.5033 20.476 50.5646 20.676 50.6873 20.82C50.8153 20.964 50.9886 21.036 51.2073 21.036C51.3299 21.036 51.4313 21.0227 51.5113 20.996C51.5966 20.964 51.6686 20.932 51.7273 20.9C51.7913 20.868 51.8473 20.8387 51.8953 20.812C51.9433 20.78 51.9913 20.764 52.0393 20.764C52.0979 20.764 52.1459 20.78 52.1833 20.812C52.2206 20.8387 52.2606 20.8813 52.3033 20.94L52.8953 21.9C52.6073 22.14 52.2766 22.3213 51.9033 22.444C51.5299 22.5667 51.1433 22.628 50.7433 22.628ZM58.2964 18.996C57.7257 19.0227 57.2457 19.0733 56.8564 19.148C56.467 19.2173 56.155 19.308 55.9204 19.42C55.6857 19.532 55.5177 19.6627 55.4164 19.812C55.315 19.9613 55.2644 20.124 55.2644 20.3C55.2644 20.6467 55.3657 20.8947 55.5684 21.044C55.7764 21.1933 56.0457 21.268 56.3764 21.268C56.7817 21.268 57.131 21.196 57.4244 21.052C57.723 20.9027 58.0137 20.6787 58.2964 20.38V18.996ZM53.7684 15.436C54.7124 14.572 55.8484 14.14 57.1764 14.14C57.6564 14.14 58.0857 14.22 58.4644 14.38C58.843 14.5347 59.163 14.7533 59.4244 15.036C59.6857 15.3133 59.883 15.6467 60.0164 16.036C60.155 16.4253 60.2244 16.852 60.2244 17.316V22.5H59.3284C59.1417 22.5 58.9977 22.4733 58.8964 22.42C58.795 22.3613 58.715 22.2467 58.6564 22.076L58.4804 21.484C58.2724 21.6707 58.0697 21.836 57.8724 21.98C57.675 22.1187 57.4697 22.236 57.2564 22.332C57.043 22.428 56.8137 22.5 56.5684 22.548C56.3284 22.6013 56.0617 22.628 55.7684 22.628C55.4217 22.628 55.1017 22.5827 54.8084 22.492C54.515 22.396 54.2617 22.2547 54.0484 22.068C53.835 21.8813 53.6697 21.6493 53.5524 21.372C53.435 21.0947 53.3764 20.772 53.3764 20.404C53.3764 20.196 53.411 19.9907 53.4804 19.788C53.5497 19.58 53.6617 19.3827 53.8164 19.196C53.9764 19.0093 54.1817 18.8333 54.4324 18.668C54.683 18.5027 54.9897 18.3587 55.3524 18.236C55.7204 18.1133 56.147 18.0147 56.6324 17.94C57.1177 17.86 57.6724 17.812 58.2964 17.796V17.316C58.2964 16.7667 58.179 16.3613 57.9444 16.1C57.7097 15.8333 57.371 15.7 56.9284 15.7C56.6084 15.7 56.3417 15.7373 56.1284 15.812C55.9204 15.8867 55.7364 15.972 55.5764 16.068C55.4164 16.1587 55.2697 16.2413 55.1364 16.316C55.0084 16.3907 54.8644 16.428 54.7044 16.428C54.5657 16.428 54.4484 16.3933 54.3524 16.324C54.2564 16.2493 54.179 16.164 54.1204 16.068L53.7684 15.436ZM64.712 22.628C63.9973 22.628 63.448 22.428 63.064 22.028C62.6853 21.6227 62.496 21.0653 62.496 20.356V15.772H61.656C61.5493 15.772 61.4587 15.7373 61.384 15.668C61.3093 15.5987 61.272 15.4947 61.272 15.356V14.572L62.592 14.356L63.008 12.116C63.0347 12.0093 63.0853 11.9267 63.16 11.868C63.2347 11.8093 63.3307 11.78 63.448 11.78H64.472V14.364H66.664V15.772H64.472V20.22C64.472 20.476 64.5333 20.676 64.656 20.82C64.784 20.964 64.9573 21.036 65.176 21.036C65.2987 21.036 65.4 21.0227 65.48 20.996C65.5653 20.964 65.6373 20.932 65.696 20.9C65.76 20.868 65.816 20.8387 65.864 20.812C65.912 20.78 65.96 20.764 66.008 20.764C66.0667 20.764 66.1147 20.78 66.152 20.812C66.1893 20.8387 66.2293 20.8813 66.272 20.94L66.864 21.9C66.576 22.14 66.2453 22.3213 65.872 22.444C65.4987 22.5667 65.112 22.628 64.712 22.628ZM77.2104 22.5V14.292H78.4184C78.6744 14.292 78.8424 14.412 78.9224 14.652L79.0504 15.26C79.1944 15.1 79.3437 14.9533 79.4984 14.82C79.6584 14.6867 79.8264 14.572 80.0024 14.476C80.1837 14.38 80.3757 14.3053 80.5784 14.252C80.7864 14.1933 81.013 14.164 81.2584 14.164C81.7757 14.164 82.1997 14.3053 82.5304 14.588C82.8664 14.8653 83.117 15.236 83.2824 15.7C83.4104 15.428 83.5704 15.196 83.7624 15.004C83.9544 14.8067 84.165 14.6467 84.3944 14.524C84.6237 14.4013 84.8664 14.3107 85.1224 14.252C85.3837 14.1933 85.645 14.164 85.9064 14.164C86.3597 14.164 86.7624 14.2333 87.1144 14.372C87.4664 14.5107 87.7624 14.7133 88.0024 14.98C88.2424 15.2467 88.4237 15.572 88.5464 15.956C88.6744 16.34 88.7384 16.78 88.7384 17.276V22.5H86.7624V17.276C86.7624 16.7533 86.6477 16.3613 86.4184 16.1C86.189 15.8333 85.853 15.7 85.4104 15.7C85.2077 15.7 85.0184 15.7347 84.8424 15.804C84.6717 15.8733 84.5197 15.9747 84.3864 16.108C84.2584 16.236 84.157 16.3987 84.0824 16.596C84.0077 16.7933 83.9704 17.02 83.9704 17.276V22.5H81.9864V17.276C81.9864 16.7267 81.8744 16.3267 81.6504 16.076C81.4317 15.8253 81.109 15.7 80.6824 15.7C80.3944 15.7 80.125 15.772 79.8744 15.916C79.629 16.0547 79.3997 16.2467 79.1864 16.492V22.5H77.2104ZM94.9526 18.996C94.382 19.0227 93.902 19.0733 93.5126 19.148C93.1233 19.2173 92.8113 19.308 92.5766 19.42C92.342 19.532 92.174 19.6627 92.0726 19.812C91.9713 19.9613 91.9206 20.124 91.9206 20.3C91.9206 20.6467 92.022 20.8947 92.2246 21.044C92.4326 21.1933 92.702 21.268 93.0326 21.268C93.438 21.268 93.7873 21.196 94.0806 21.052C94.3793 20.9027 94.67 20.6787 94.9526 20.38V18.996ZM90.4246 15.436C91.3686 14.572 92.5046 14.14 93.8326 14.14C94.3126 14.14 94.742 14.22 95.1206 14.38C95.4993 14.5347 95.8193 14.7533 96.0806 15.036C96.342 15.3133 96.5393 15.6467 96.6726 16.036C96.8113 16.4253 96.8806 16.852 96.8806 17.316V22.5H95.9846C95.798 22.5 95.654 22.4733 95.5526 22.42C95.4513 22.3613 95.3713 22.2467 95.3126 22.076L95.1366 21.484C94.9286 21.6707 94.726 21.836 94.5286 21.98C94.3313 22.1187 94.126 22.236 93.9126 22.332C93.6993 22.428 93.47 22.5 93.2246 22.548C92.9846 22.6013 92.718 22.628 92.4246 22.628C92.078 22.628 91.758 22.5827 91.4646 22.492C91.1713 22.396 90.918 22.2547 90.7046 22.068C90.4913 21.8813 90.326 21.6493 90.2086 21.372C90.0913 21.0947 90.0326 20.772 90.0326 20.404C90.0326 20.196 90.0673 19.9907 90.1366 19.788C90.206 19.58 90.318 19.3827 90.4726 19.196C90.6326 19.0093 90.838 18.8333 91.0886 18.668C91.3393 18.5027 91.646 18.3587 92.0086 18.236C92.3766 18.1133 92.8033 18.0147 93.2886 17.94C93.774 17.86 94.3286 17.812 94.9526 17.796V17.316C94.9526 16.7667 94.8353 16.3613 94.6006 16.1C94.366 15.8333 94.0273 15.7 93.5846 15.7C93.2646 15.7 92.998 15.7373 92.7846 15.812C92.5766 15.8867 92.3926 15.972 92.2326 16.068C92.0726 16.1587 91.926 16.2413 91.7926 16.316C91.6646 16.3907 91.5206 16.428 91.3606 16.428C91.222 16.428 91.1046 16.3933 91.0086 16.324C90.9126 16.2493 90.8353 16.164 90.7766 16.068L90.4246 15.436ZM100.606 15.716C100.862 15.2253 101.166 14.8413 101.518 14.564C101.87 14.2813 102.286 14.14 102.766 14.14C103.144 14.14 103.448 14.2227 103.678 14.388L103.55 15.868C103.523 15.964 103.483 16.0333 103.43 16.076C103.382 16.1133 103.315 16.132 103.23 16.132C103.15 16.132 103.03 16.1187 102.87 16.092C102.715 16.0653 102.563 16.052 102.414 16.052C102.195 16.052 102 16.084 101.83 16.148C101.659 16.212 101.504 16.3053 101.366 16.428C101.232 16.5453 101.112 16.6893 101.006 16.86C100.904 17.0307 100.808 17.2253 100.718 17.444V22.5H98.7416V14.292H99.9016C100.104 14.292 100.246 14.3293 100.326 14.404C100.406 14.4733 100.459 14.6013 100.486 14.788L100.606 15.716ZM106.686 10.612V17.42H107.054C107.188 17.42 107.292 17.404 107.366 17.372C107.446 17.3347 107.526 17.2627 107.606 17.156L109.646 14.636C109.732 14.524 109.825 14.4387 109.926 14.38C110.033 14.3213 110.169 14.292 110.334 14.292H112.142L109.59 17.34C109.409 17.58 109.212 17.764 108.998 17.892C109.11 17.972 109.209 18.0653 109.294 18.172C109.385 18.2787 109.47 18.3933 109.55 18.516L112.286 22.5H110.502C110.348 22.5 110.214 22.476 110.102 22.428C109.99 22.3747 109.897 22.2813 109.822 22.148L107.726 19.036C107.652 18.9133 107.574 18.8333 107.494 18.796C107.414 18.7587 107.294 18.74 107.134 18.74H106.686V22.5H104.71V10.612H106.686ZM118.123 17.452C118.123 17.196 118.086 16.956 118.011 16.732C117.942 16.5027 117.835 16.3027 117.691 16.132C117.547 15.9613 117.363 15.828 117.139 15.732C116.921 15.6307 116.665 15.58 116.371 15.58C115.801 15.58 115.35 15.7427 115.019 16.068C114.694 16.3933 114.486 16.8547 114.395 17.452H118.123ZM114.355 18.644C114.387 19.0653 114.462 19.4307 114.579 19.74C114.697 20.044 114.851 20.2973 115.043 20.5C115.235 20.6973 115.462 20.8467 115.723 20.948C115.99 21.044 116.283 21.092 116.603 21.092C116.923 21.092 117.198 21.0547 117.427 20.98C117.662 20.9053 117.865 20.8227 118.035 20.732C118.211 20.6413 118.363 20.5587 118.491 20.484C118.625 20.4093 118.753 20.372 118.875 20.372C119.041 20.372 119.163 20.4333 119.243 20.556L119.811 21.276C119.593 21.532 119.347 21.748 119.075 21.924C118.803 22.0947 118.518 22.2333 118.219 22.34C117.926 22.4413 117.625 22.5133 117.315 22.556C117.011 22.5987 116.715 22.62 116.427 22.62C115.857 22.62 115.326 22.5267 114.835 22.34C114.345 22.148 113.918 21.868 113.555 21.5C113.193 21.1267 112.907 20.668 112.699 20.124C112.491 19.5747 112.387 18.94 112.387 18.22C112.387 17.66 112.478 17.1347 112.659 16.644C112.841 16.148 113.099 15.7187 113.435 15.356C113.777 14.988 114.19 14.6973 114.675 14.484C115.166 14.2707 115.718 14.164 116.331 14.164C116.849 14.164 117.326 14.2467 117.763 14.412C118.201 14.5773 118.577 14.82 118.891 15.14C119.206 15.4547 119.451 15.844 119.627 16.308C119.809 16.7667 119.899 17.292 119.899 17.884C119.899 18.1827 119.867 18.3853 119.803 18.492C119.739 18.5933 119.617 18.644 119.435 18.644H114.355ZM124.04 22.628C123.325 22.628 122.776 22.428 122.392 22.028C122.013 21.6227 121.824 21.0653 121.824 20.356V15.772H120.984C120.877 15.772 120.787 15.7373 120.712 15.668C120.637 15.5987 120.6 15.4947 120.6 15.356V14.572L121.92 14.356L122.336 12.116C122.363 12.0093 122.413 11.9267 122.488 11.868C122.563 11.8093 122.659 11.78 122.776 11.78H123.8V14.364H125.992V15.772H123.8V20.22C123.8 20.476 123.861 20.676 123.984 20.82C124.112 20.964 124.285 21.036 124.504 21.036C124.627 21.036 124.728 21.0227 124.808 20.996C124.893 20.964 124.965 20.932 125.024 20.9C125.088 20.868 125.144 20.8387 125.192 20.812C125.24 20.78 125.288 20.764 125.336 20.764C125.395 20.764 125.443 20.78 125.48 20.812C125.517 20.8387 125.557 20.8813 125.6 20.94L126.192 21.9C125.904 22.14 125.573 22.3213 125.2 22.444C124.827 22.5667 124.44 22.628 124.04 22.628Z" fill="#333333"/>
<path d="M72.6491 18.14V14.356C72.6491 13.9987 72.6731 13.604 72.7211 13.172L69.1291 18.14H72.6491ZM75.8251 18.14V19.284C75.8251 19.3907 75.7905 19.484 75.7211 19.564C75.6518 19.6387 75.5531 19.676 75.4251 19.676H74.3691V22.5H72.6491V19.676H67.7691C67.6358 19.676 67.5185 19.636 67.4171 19.556C67.3158 19.4707 67.2518 19.3667 67.2251 19.244L67.0171 18.244L72.4971 10.924H74.3691V18.14H75.8251Z" fill="#EA5DBB"/>
<defs>
<linearGradient id="paint0_linear" x1="36.8" y1="-9.6" x2="9.2" y2="32" gradientUnits="userSpaceOnUse">
<stop stop-color="#FF00AA"/>
<stop offset="1" stop-color="#8912DE"/>
</linearGradient>
<linearGradient id="paint1_linear" x1="36.8" y1="-9.6" x2="9.2" y2="32" gradientUnits="userSpaceOnUse">
<stop stop-color="#FF00AA"/>
<stop offset="1" stop-color="#8912DE"/>
</linearGradient>
</defs>
</svg>
