<svg width="16" height="16" viewBox="0 0 16 16" fill="none" xmlns="http://www.w3.org/2000/svg">
<rect width="16" height="16" rx="4" fill="#0069FF"/>
<g clip-path="url(#clip0)">
<path fill-rule="evenodd" clip-rule="evenodd" d="M2.68314 6.00855C2.3684 5.9754 2.05112 6.04054 1.7749 6.19503C1.49869 6.34951 1.2771 6.58576 1.1406 6.87129C1.0041 7.15682 0.95938 7.47762 1.0126 7.78959C1.06581 8.10157 1.21435 8.3894 1.43779 8.61354C1.66123 8.83767 1.9486 8.98709 2.26041 9.04127C2.57222 9.09546 2.89316 9.05173 3.17911 8.91611C3.46506 8.78049 3.70199 8.55964 3.85733 8.2839C4.01267 8.00816 4.07879 7.69108 4.04661 7.37624C4.0112 7.02628 3.85628 6.6992 3.60794 6.45009C3.35959 6.20098 3.033 6.04505 2.68314 6.00855ZM2.6335 8.34268C2.46423 8.36539 2.29209 8.33449 2.14128 8.25431C1.99048 8.17414 1.86859 8.04872 1.79274 7.8957C1.71689 7.74267 1.6909 7.56972 1.71842 7.40116C1.74594 7.2326 1.82559 7.0769 1.94617 6.95594C2.06675 6.83498 2.2222 6.75485 2.39067 6.7268C2.55915 6.69875 2.73218 6.7242 2.88544 6.79957C3.0387 6.87494 3.1645 6.99644 3.24514 7.14699C3.32579 7.29755 3.35723 7.46959 3.33505 7.63893C3.31178 7.81706 3.23043 7.98254 3.10361 8.10976C2.97678 8.23698 2.81155 8.31885 2.6335 8.34268ZM4.86595 6.06916C4.81282 6.06928 4.76039 6.08125 4.71247 6.1042C4.66454 6.12714 4.62234 6.16048 4.58892 6.20178C4.55551 6.24309 4.53172 6.29133 4.51929 6.34299C4.50687 6.39464 4.50611 6.44842 4.51709 6.50041C4.5507 6.66882 4.70801 6.7839 4.87938 6.7839H5.87384L4.32622 8.83196C4.31478 8.84708 4.30777 8.86509 4.30598 8.88397C4.3042 8.90285 4.30771 8.92185 4.31612 8.93885C4.32453 8.95585 4.33751 8.97016 4.3536 8.9802C4.36969 8.99023 4.38826 8.99559 4.40722 8.99566H6.83481C7.00606 8.99566 7.16349 8.88062 7.1971 8.71217C7.20808 8.66019 7.20733 8.60642 7.19491 8.55477C7.1825 8.50312 7.15873 8.45489 7.12533 8.41358C7.09193 8.37227 7.04974 8.33892 7.00183 8.31596C6.95392 8.29301 6.9015 8.28102 6.84838 8.28086H5.6367L7.18313 6.23439C7.19469 6.21912 7.20176 6.20094 7.20356 6.18187C7.20536 6.16281 7.20181 6.14362 7.19331 6.12646C7.18481 6.1093 7.1717 6.09485 7.15545 6.08473C7.13919 6.07461 7.12044 6.06921 7.10129 6.06916H4.86595ZM14.5665 6.0774C14.4861 6.09651 14.4146 6.14248 14.3639 6.2077C14.3132 6.27293 14.2863 6.3535 14.2876 6.4361V7.62612L12.3594 6.09163C12.3442 6.07963 12.326 6.07214 12.3068 6.07002C12.2876 6.0679 12.2682 6.07125 12.2509 6.07967C12.2335 6.08809 12.2189 6.10124 12.2086 6.11761C12.1984 6.13399 12.193 6.15292 12.193 6.17222V8.62935C12.1917 8.71195 12.2187 8.79253 12.2694 8.85776C12.3201 8.92298 12.3915 8.96895 12.4719 8.98805C12.5241 8.99954 12.5782 8.99916 12.6302 8.98694C12.6822 8.97473 12.7308 8.95099 12.7725 8.91748C12.8141 8.88397 12.8477 8.84154 12.8707 8.79333C12.8937 8.74511 12.9057 8.69234 12.9056 8.6389V7.43858L14.8339 8.9731C14.849 8.98509 14.8672 8.99258 14.8864 8.99469C14.9056 8.99681 14.925 8.99347 14.9423 8.98505C14.9597 8.97663 14.9743 8.96349 14.9846 8.94712C14.9948 8.93075 15.0002 8.91183 15.0001 8.89253V6.42644C15.0002 6.37301 14.9883 6.32026 14.9652 6.27206C14.9422 6.22386 14.9086 6.18145 14.867 6.14795C14.8254 6.11445 14.7767 6.09073 14.7247 6.07851C14.6727 6.0663 14.6186 6.06592 14.5665 6.0774ZM9.54575 6.71548C10.3614 6.71548 10.9708 7.1465 10.9708 7.53205C10.9708 7.91759 10.3614 8.34861 9.54575 8.34861C8.73014 8.34861 8.12073 7.91759 8.12073 7.53205C8.12073 7.1465 8.73014 6.71548 9.54575 6.71548ZM9.54575 6.00077C8.36519 6.00077 7.40819 6.68635 7.40819 7.53205C7.40819 8.37774 8.36519 9.06332 9.54575 9.06332C10.7263 9.06332 11.6833 8.37774 11.6833 7.53205C11.6833 6.68635 10.7263 6.00077 9.54575 6.00077Z" fill="white"/>
</g>
<defs>
<clipPath id="clip0">
<rect width="14" height="3.06452" fill="white" transform="translate(1 6)"/>
</clipPath>
</defs>
</svg>
