<svg width="44" height="44" viewBox="0 0 44 44" fill="none" xmlns="http://www.w3.org/2000/svg">
<path d="M0 22C0 9.84974 9.84974 0 22 0C34.1503 0 44 9.84974 44 22C44 34.1503 34.1503 44 22 44C9.84974 44 0 34.1503 0 22Z" fill="#F4F5F8"/>
<path d="M26.9498 24.0503C26.1874 23.2879 25.2799 22.7235 24.2898 22.3819C25.3502 21.6515 26.0469 20.4291 26.0469 19.047C26.0469 16.8156 24.2315 15.0001 22 15.0001C19.7686 15.0001 17.9531 16.8156 17.9531 19.047C17.9531 20.4292 18.6498 21.6515 19.7103 22.3819C18.7202 22.7235 17.8127 23.2879 17.0503 24.0503C15.7281 25.3725 15 27.1303 15 29.0001H16.0938C16.0938 25.7435 18.7433 23.0938 22 23.0938C25.2568 23.0938 27.9063 25.7434 27.9063 29.0001H29.0001C29.0001 27.1303 28.2719 25.3724 26.9498 24.0503ZM22 22.0001C20.3717 22.0001 19.0469 20.6753 19.0469 19.047C19.0469 17.4186 20.3717 16.0938 22 16.0938C23.6284 16.0938 24.9532 17.4186 24.9532 19.047C24.9532 20.6753 23.6284 22.0001 22 22.0001Z" fill="#5068A5"/>
</svg>
